# xmcd CD database file
#
# Track frame offsets:
#	150
#	7682
#	27227
#	52120
#	70197
#	90090
#	109842
#	129005
#	147675
#	163835
#	184225
#	207757
#	227890
#	249007
#	269582
#	287375
#	310497
#
# Disc length: 4430 seconds
#
# Revision: 0
# Processed by: cddbd v1.5.1PL0 Copyright (c) Steve Scherf et al.
# Submitted via: CDex 1.51
#
DISCID=e6114c11
DTITLE=小森　まなみ - ユ・メ・ノ・チ・カ・ラ
DYEAR=2004
DGENRE=Pop
TTITLE0=Seed Leaf
TTITLE1=あした元気になあれ(AsR Special Edition)
TTITLE2=Life〜上をむいて歩こう〜
TTITLE3=きゅんきゅんのパワー
TTITLE4=Little Courage〜うちへおいでよ〜
TTITLE5=ひまわり
TTITLE6=青空−Ｌ号
TTITLE7=Happy Rider
TTITLE8=Windy Swallow
TTITLE9=夏色の翼
TTITLE10=Holy Eyes〜君の夢はぼくの夢〜
TTITLE11=夢のうぶ声
TTITLE12=Ｙellを君に！
TTITLE13=Ｆｉｇｈｔ！〜最後の天使〜
TTITLE14=それは　いつか　咲く日のために
TTITLE15=青空のパッセージ
TTITLE16=Presage
EXTD=YEAR: 2004
EXTT0=
EXTT1=
EXTT2=
EXTT3=
EXTT4=
EXTT5=
EXTT6=
EXTT7=
EXTT8=
EXTT9=
EXTT10=
EXTT11=
EXTT12=
EXTT13=
EXTT14=
EXTT15=
EXTT16=
PLAYORDER=
